<svg width="18" height="22" viewBox="0 0 18 22" fill="none" xmlns="http://www.w3.org/2000/svg">
<path d="M9 0C11.3869 0 13.6764 0.947915 15.3643 2.63574C17.0521 4.32357 18 6.61305 18 9C18 11.8337 16.4474 14.603 14.7939 16.7754C13.1175 18.978 11.2102 20.7308 10.2549 21.5557C10.2379 21.5704 10.2201 21.5851 10.2021 21.5986C9.89898 21.8266 9.53796 21.9626 9.16211 21.9932L9 22C8.56644 22 8.14439 21.8592 7.79785 21.5986C7.77987 21.5851 7.76215 21.5704 7.74512 21.5557C6.78983 20.7308 4.88248 18.978 3.20605 16.7754C1.55262 14.603 0 11.8337 0 9C0 6.61305 0.947915 4.32357 2.63574 2.63574C4.32357 0.947915 6.61305 0 9 0ZM9 2C7.14348 2 5.36256 2.73705 4.0498 4.0498C2.73705 5.36256 2 7.14348 2 9C2 11.1593 3.21679 13.4871 4.79785 15.5645C6.32566 17.5717 8.07955 19.1963 9 19.9951C9.92045 19.1963 11.6743 17.5717 13.2021 15.5645C14.7832 13.4871 16 11.1593 16 9C16 7.14348 15.2629 5.36256 13.9502 4.0498C12.7194 2.819 11.077 2.09452 9.34668 2.00879L9 2ZM9 5C11.2091 5 13 6.79086 13 9C13 11.2091 11.2091 13 9 13C6.79086 13 5 11.2091 5 9C5 6.79086 6.79086 5 9 5ZM9 7C7.89543 7 7 7.89543 7 9C7 10.1046 7.89543 11 9 11C10.1046 11 11 10.1046 11 9C11 7.89543 10.1046 7 9 7Z" fill="white"/>
</svg>
