<svg width="19" height="18" viewBox="0 0 19 18" fill="none" xmlns="http://www.w3.org/2000/svg">
<path d="M12.499 5C14.0461 5 15.5301 5.61405 16.624 6.70801C17.718 7.80197 18.332 9.28591 18.332 10.833V16.666C18.3319 17.1261 17.9592 17.5 17.499 17.5H14.166C13.706 17.4998 13.3322 17.126 13.332 16.666V10.833C13.332 10.612 13.2442 10.4004 13.0879 10.2441C12.9316 10.0879 12.72 10 12.499 10C12.2781 10.0001 12.0664 10.0879 11.9102 10.2441C11.7541 10.4004 11.666 10.6121 11.666 10.833V16.666C11.6658 17.1261 11.2922 17.5 10.832 17.5H7.49902C7.03904 17.4998 6.66619 17.126 6.66602 16.666V10.833C6.66602 9.28607 7.28026 7.80194 8.37402 6.70801C9.46791 5.61412 10.952 5.00009 12.499 5ZM4.16602 5.83301C4.6261 5.83318 5 6.20589 5 6.66602V16.666C5 17.1261 4.6261 17.4988 4.16602 17.499H0.833008C0.372771 17.499 1.2895e-07 17.1263 0 16.666V6.66602C0 6.20578 0.372771 5.83301 0.833008 5.83301H4.16602ZM1.66602 15.833H3.33301V7.49902H1.66602V15.833ZM12.499 6.66602C11.3941 6.6661 10.3341 7.10539 9.55273 7.88672C8.77154 8.66809 8.33203 9.72809 8.33203 10.833V15.833H9.99902V10.833C9.99902 10.1701 10.2628 9.53424 10.7314 9.06543C11.2002 8.59667 11.8361 8.33309 12.499 8.33301C13.1621 8.33301 13.7978 8.59659 14.2666 9.06543C14.7354 9.53427 14.999 10.17 14.999 10.833V15.833H16.666V10.833C16.666 9.72794 16.2267 8.66812 15.4453 7.88672C14.6639 7.10532 13.6041 6.66602 12.499 6.66602ZM2.5 0C3.88041 0.000351893 5 1.11951 5 2.5C4.99965 3.8802 3.8802 4.99965 2.5 5C1.11951 5 0.000351893 3.88041 0 2.5C0 1.11929 1.11929 0 2.5 0ZM2.5 1.66602C2.03976 1.66602 1.66602 2.03976 1.66602 2.5C1.66637 2.95994 2.03998 3.33301 2.5 3.33301C2.95972 3.33266 3.33266 2.95972 3.33301 2.5C3.33301 2.03998 2.95994 1.66637 2.5 1.66602Z" fill="#161616"/>
</svg>
