<svg width="22" height="18" viewBox="0 0 22 18" fill="none" xmlns="http://www.w3.org/2000/svg">
<path d="M19 0C20.6569 0 22 1.34315 22 3V15C22 16.6569 20.6569 18 19 18H3C1.34315 18 0 16.6569 0 15V3C0 1.34315 1.34315 0 3 0H19ZM2 15C2 15.5523 2.44772 16 3 16H19C19.5523 16 20 15.5523 20 15V5.82227L12.5459 10.5703C12.5345 10.5775 12.5234 10.585 12.5117 10.5918C12.0542 10.8576 11.534 10.997 11.0049 10.9971C10.4757 10.9971 9.95565 10.8575 9.49805 10.5918C9.48637 10.585 9.47428 10.5776 9.46289 10.5703L2 5.82129V15ZM3 2C2.44772 2 2 2.44772 2 3V3.4502L10.5078 8.86523C10.659 8.9518 10.8306 8.99707 11.0049 8.99707C11.1787 8.997 11.3491 8.9514 11.5 8.86523L20 3.4502V3C20 2.44772 19.5523 2 19 2H3Z" fill="white"/>
</svg>
