<svg width="15" height="15" viewBox="0 0 15 15" fill="none" xmlns="http://www.w3.org/2000/svg">
<path d="M13.7471 0.00292969L13.8877 0.0244141L14.0225 0.0644531C14.1105 0.09769 14.1933 0.143721 14.2686 0.200195L14.375 0.291992L14.4678 0.399414C14.5523 0.512105 14.6126 0.64175 14.6436 0.780273C14.6839 0.961369 14.6723 1.15011 14.6113 1.3252L10.2783 13.9922V13.9932C10.2121 14.1861 10.0883 14.354 9.92383 14.4746C9.75942 14.5952 9.56222 14.6627 9.3584 14.668C9.15449 14.6732 8.95362 14.616 8.7832 14.5039C8.61279 14.3918 8.48027 14.2303 8.4043 14.041L6.28418 8.75293V8.75195C6.25091 8.66994 6.20203 8.59501 6.13965 8.53223C6.13889 8.53148 6.13747 8.53103 6.13672 8.53027C6.1359 8.52946 6.13557 8.52816 6.13477 8.52734C6.10377 8.49688 6.06931 8.47011 6.0332 8.44629L5.91406 8.38379L0.626953 6.26367C0.437654 6.18769 0.276164 6.05518 0.164062 5.88477C0.0519745 5.71431 -0.00522362 5.51351 0 5.30957C0.00525691 5.10573 0.0727701 4.90856 0.193359 4.74414L0.291992 4.62793C0.399216 4.52071 0.531096 4.43928 0.675781 4.38965L13.3418 0.0556641V0.0566406C13.4723 0.0111079 13.6102 -0.00762385 13.7471 0.00292969ZM7.46777 8.1416L7.52148 8.25586L7.52246 8.25684L9.30762 12.7119L12.6387 2.97168L7.46777 8.1416ZM1.95508 5.35938L6.41016 7.14551C6.44941 7.16123 6.48732 7.1801 6.52539 7.19824L11.6982 2.02637L1.95508 5.35938Z" fill="white"/>
</svg>
