<svg width="32" height="32" viewBox="0 0 32 32" fill="none" xmlns="http://www.w3.org/2000/svg">
<path d="M20.0007 2.66699H8.00065C7.29341 2.66699 6.61513 2.94794 6.11503 3.44804C5.61494 3.94814 5.33398 4.62641 5.33398 5.33366V26.667C5.33398 27.3742 5.61494 28.0525 6.11503 28.5526C6.61513 29.0527 7.29341 29.3337 8.00065 29.3337H24.0007C24.7079 29.3337 25.3862 29.0527 25.8863 28.5526C26.3864 28.0525 26.6673 27.3742 26.6673 26.667V9.33366L20.0007 2.66699Z" stroke="white" stroke-width="2.66667" stroke-linecap="round" stroke-linejoin="round"/>
<path d="M18.666 2.66699V8.00033C18.666 8.70757 18.947 9.38585 19.4471 9.88594C19.9472 10.386 20.6254 10.667 21.3327 10.667H26.666" stroke="white" stroke-width="2.66667" stroke-linecap="round" stroke-linejoin="round"/>
<path d="M12 19.9997L14.6667 22.6663L20 17.333" stroke="white" stroke-width="2.66667" stroke-linecap="round" stroke-linejoin="round"/>
</svg>
