<svg width="32" height="32" viewBox="0 0 32 32" fill="none" xmlns="http://www.w3.org/2000/svg">
<path d="M28.0007 21.333H22.6673C21.9309 21.333 21.334 21.93 21.334 22.6663V27.9997C21.334 28.7361 21.9309 29.333 22.6673 29.333H28.0007C28.737 29.333 29.334 28.7361 29.334 27.9997V22.6663C29.334 21.93 28.737 21.333 28.0007 21.333Z" stroke="white" stroke-width="2.66667" stroke-linecap="round" stroke-linejoin="round"/>
<path d="M9.33268 21.333H3.99935C3.26297 21.333 2.66602 21.93 2.66602 22.6663V27.9997C2.66602 28.7361 3.26297 29.333 3.99935 29.333H9.33268C10.0691 29.333 10.666 28.7361 10.666 27.9997V22.6663C10.666 21.93 10.0691 21.333 9.33268 21.333Z" stroke="white" stroke-width="2.66667" stroke-linecap="round" stroke-linejoin="round"/>
<path d="M18.6667 2.66699H13.3333C12.597 2.66699 12 3.26395 12 4.00033V9.33366C12 10.07 12.597 10.667 13.3333 10.667H18.6667C19.403 10.667 20 10.07 20 9.33366V4.00033C20 3.26395 19.403 2.66699 18.6667 2.66699Z" stroke="white" stroke-width="2.66667" stroke-linecap="round" stroke-linejoin="round"/>
<path d="M6.66602 21.3333V17.3333C6.66602 16.9797 6.80649 16.6406 7.05654 16.3905C7.30659 16.1405 7.64573 16 7.99935 16H23.9993C24.353 16 24.6921 16.1405 24.9422 16.3905C25.1922 16.6406 25.3327 16.9797 25.3327 17.3333V21.3333" stroke="white" stroke-width="2.66667" stroke-linecap="round" stroke-linejoin="round"/>
<path d="M16 16.0003V10.667" stroke="white" stroke-width="2.66667" stroke-linecap="round" stroke-linejoin="round"/>
</svg>
