<svg width="32" height="32" viewBox="0 0 32 32" fill="none" xmlns="http://www.w3.org/2000/svg">
<path d="M17.1073 2.90649C16.7599 2.74802 16.3825 2.66602 16.0006 2.66602C15.6188 2.66602 15.2414 2.74802 14.8939 2.90649L3.46727 8.10649C3.23067 8.21082 3.02951 8.38169 2.88829 8.5983C2.74706 8.81491 2.67188 9.06791 2.67188 9.32649C2.67188 9.58507 2.74706 9.83807 2.88829 10.0547C3.02951 10.2713 3.23067 10.4422 3.46727 10.5465L14.9073 15.7598C15.2547 15.9183 15.6321 16.0003 16.0139 16.0003C16.3958 16.0003 16.7732 15.9183 17.1206 15.7598L28.5606 10.5598C28.7972 10.4555 28.9984 10.2846 29.1396 10.068C29.2808 9.85141 29.356 9.59841 29.356 9.33982C29.356 9.08124 29.2808 8.82824 29.1396 8.61163C28.9984 8.39502 28.7972 8.22415 28.5606 8.11983L17.1073 2.90649Z" stroke="white" stroke-width="2.66667" stroke-linecap="round" stroke-linejoin="round"/>
<path d="M2.66602 16C2.66539 16.255 2.73791 16.5049 2.87498 16.7199C3.01204 16.935 3.20791 17.1062 3.43935 17.2133L14.906 22.4267C15.2516 22.5832 15.6266 22.6641 16.006 22.6641C16.3854 22.6641 16.7604 22.5832 17.106 22.4267L28.546 17.2267C28.782 17.1206 28.9821 16.9481 29.1218 16.7303C29.2614 16.5125 29.3347 16.2587 29.3327 16" stroke="white" stroke-width="2.66667" stroke-linecap="round" stroke-linejoin="round"/>
<path d="M2.66602 22.667C2.66539 22.922 2.73791 23.1719 2.87498 23.3869C3.01204 23.602 3.20791 23.7732 3.43935 23.8803L14.906 29.0937C15.2516 29.2502 15.6266 29.3311 16.006 29.3311C16.3854 29.3311 16.7604 29.2502 17.106 29.0937L28.546 23.8937C28.782 23.7876 28.9821 23.6151 29.1218 23.3973C29.2614 23.1795 29.3347 22.9257 29.3327 22.667" stroke="white" stroke-width="2.66667" stroke-linecap="round" stroke-linejoin="round"/>
</svg>
