<svg width="32" height="32" viewBox="0 0 32 32" fill="none" xmlns="http://www.w3.org/2000/svg">
<path d="M16 10.667C22.6274 10.667 28 8.87613 28 6.66699C28 4.45785 22.6274 2.66699 16 2.66699C9.37258 2.66699 4 4.45785 4 6.66699C4 8.87613 9.37258 10.667 16 10.667Z" stroke="white" stroke-width="2.66667" stroke-linecap="round" stroke-linejoin="round"/>
<path d="M4 6.66699V25.3337C4 26.3945 5.26428 27.4119 7.51472 28.1621C9.76516 28.9122 12.8174 29.3337 16 29.3337C19.1826 29.3337 22.2348 28.9122 24.4853 28.1621C26.7357 27.4119 28 26.3945 28 25.3337V6.66699" stroke="white" stroke-width="2.66667" stroke-linecap="round" stroke-linejoin="round"/>
<path d="M4 16C4 17.0609 5.26428 18.0783 7.51472 18.8284C9.76516 19.5786 12.8174 20 16 20C19.1826 20 22.2348 19.5786 24.4853 18.8284C26.7357 18.0783 28 17.0609 28 16" stroke="white" stroke-width="2.66667" stroke-linecap="round" stroke-linejoin="round"/>
</svg>
