<svg width="34" height="34" viewBox="0 0 34 34" fill="none" xmlns="http://www.w3.org/2000/svg">
<path d="M9.47752 18.893C9.30937 18.8939 9.14452 18.8197 9.0021 18.6788C8.85969 18.538 8.74556 18.3365 8.67298 18.0975C8.6004 17.8586 8.57235 17.5922 8.59208 17.3291C8.61181 17.0661 8.67852 16.8173 8.78445 16.6116L17.5811 2.33533C17.6471 2.21536 17.737 2.13428 17.8361 2.10542C17.9352 2.07655 18.0376 2.10161 18.1264 2.17648C18.2153 2.25135 18.2854 2.37158 18.3251 2.51744C18.3649 2.66329 18.372 2.82611 18.3453 2.97917L16.6393 11.405C16.5889 11.617 16.5721 11.8452 16.59 12.0698C16.608 12.2944 16.6603 12.5088 16.7424 12.6946C16.8245 12.8804 16.934 13.0321 17.0616 13.1365C17.1891 13.241 17.3308 13.2952 17.4745 13.2945H23.6944C23.8625 13.2936 24.0274 13.3678 24.1698 13.5087C24.3122 13.6495 24.4263 13.851 24.4989 14.09C24.5715 14.3289 24.5995 14.5953 24.5798 14.8584C24.5601 15.1214 24.4934 15.3702 24.3874 15.5759L15.5908 29.8522C15.5248 29.9721 15.4349 30.0532 15.3358 30.0821C15.2367 30.1109 15.1343 30.0859 15.0454 30.011C14.9566 29.9361 14.8865 29.8159 14.8467 29.6701C14.807 29.5242 14.7999 29.3614 14.8266 29.2083L16.5326 20.7825C16.5829 20.5705 16.5998 20.3423 16.5819 20.1177C16.5639 19.8931 16.5116 19.6787 16.4295 19.4929C16.3473 19.3071 16.2378 19.1554 16.1103 19.051C15.9828 18.9465 15.8411 18.8923 15.6974 18.893H9.47752Z" stroke="url(#paint0_linear_1_16002)" stroke-width="2.76424" stroke-linecap="round" stroke-linejoin="round"/>
<defs>
<linearGradient id="paint0_linear_1_16002" x1="8.58594" y1="2.09375" x2="32.709" y2="15.8784" gradientUnits="userSpaceOnUse">
<stop stop-color="#FB2C36"/>
<stop offset="1" stop-color="#FF6900"/>
</linearGradient>
</defs>
</svg>
