<svg width="33" height="33" viewBox="0 0 33 33" fill="none" xmlns="http://www.w3.org/2000/svg">
<path d="M2.75743 16.5157C2.64596 16.2154 2.64596 15.8851 2.75743 15.5848C3.84309 12.9524 5.68595 10.7016 8.05236 9.11779C10.4188 7.53398 13.2022 6.68848 16.0497 6.68848C18.8972 6.68848 21.6806 7.53398 24.047 9.11779C26.4134 10.7016 28.2563 12.9524 29.342 15.5848C29.4534 15.8851 29.4534 16.2154 29.342 16.5157C28.2563 19.1482 26.4134 21.399 24.047 22.9828C21.6806 24.5666 18.8972 25.4121 16.0497 25.4121C13.2022 25.4121 10.4188 24.5666 8.05236 22.9828C5.68595 21.399 3.84309 19.1482 2.75743 16.5157Z" stroke="#1FCBD4" stroke-width="2.67504" stroke-linecap="round" stroke-linejoin="round"/>
<path d="M16.0497 20.0632C18.2657 20.0632 20.0622 18.2667 20.0622 16.0506C20.0622 13.8346 18.2657 12.0381 16.0497 12.0381C13.8336 12.0381 12.0371 13.8346 12.0371 16.0506C12.0371 18.2667 13.8336 20.0632 16.0497 20.0632Z" stroke="#1FCBD4" stroke-width="2.67504" stroke-linecap="round" stroke-linejoin="round"/>
</svg>
