<svg width="16" height="18" viewBox="0 0 16 18" fill="none" xmlns="http://www.w3.org/2000/svg">
<path d="M0.666016 2.44518C0.665924 2.13239 0.747074 1.82512 0.901271 1.55439C1.05547 1.28365 1.27725 1.05904 1.54423 0.903233C1.81121 0.747427 2.11393 0.665941 2.42182 0.667002C2.72971 0.668064 3.03188 0.751637 3.29781 0.909281L13.7944 7.12932C14.0593 7.28547 14.2792 7.50951 14.4321 7.77905C14.5851 8.0486 14.6657 8.35421 14.666 8.66534C14.6663 8.97646 14.5862 9.28221 14.4337 9.55203C14.2812 9.82185 14.0616 10.0463 13.797 10.2029L3.29781 16.4247C3.03188 16.5823 2.72971 16.6659 2.42182 16.667C2.11393 16.668 1.81121 16.5866 1.54423 16.4308C1.27725 16.2749 1.05547 16.0503 0.901271 15.7796C0.747074 15.5089 0.665924 15.2016 0.666016 14.8888V2.44518Z" fill="#161616" stroke="#161616" stroke-width="1.33333" stroke-linecap="round" stroke-linejoin="round"/>
</svg>
