<svg width="28" height="28" viewBox="0 0 28 28" fill="none" xmlns="http://www.w3.org/2000/svg">
<path d="M13.4887 3.81077C13.539 3.71931 13.613 3.64305 13.7029 3.58993C13.7928 3.53681 13.8953 3.50879 13.9997 3.50879C14.1041 3.50879 14.2066 3.53681 14.2965 3.58993C14.3863 3.64305 14.4603 3.71931 14.5107 3.81077L17.9547 10.3488C18.0368 10.5002 18.1514 10.6315 18.2903 10.7333C18.4292 10.8352 18.589 10.905 18.758 10.9378C18.9271 10.9706 19.1014 10.9655 19.2683 10.923C19.4352 10.8804 19.5906 10.8015 19.7233 10.6918L24.7132 6.41711C24.809 6.3392 24.927 6.29369 25.0503 6.28714C25.1736 6.28059 25.2958 6.31333 25.3993 6.38064C25.5028 6.44796 25.5823 6.54639 25.6263 6.66175C25.6703 6.77711 25.6766 6.90346 25.6442 7.02261L22.3378 18.9763C22.2704 19.2209 22.125 19.4368 21.9237 19.5914C21.7224 19.7459 21.4763 19.8306 21.2225 19.8326H6.77801C6.52407 19.8308 6.27764 19.7463 6.07614 19.5917C5.87463 19.4372 5.72906 19.2211 5.66151 18.9763L2.35635 7.02377C2.32397 6.90462 2.33024 6.77827 2.37425 6.66291C2.41825 6.54755 2.49773 6.44913 2.60123 6.38181C2.70474 6.31449 2.82693 6.28176 2.95023 6.28831C3.07352 6.29486 3.19156 6.34037 3.28735 6.41827L8.27601 10.6929C8.40878 10.8027 8.56419 10.8816 8.73109 10.9241C8.89799 10.9667 9.07223 10.9717 9.24131 10.9389C9.4104 10.9062 9.57012 10.8363 9.70902 10.7345C9.84792 10.6327 9.96255 10.5013 10.0447 10.3499L13.4887 3.81077Z" stroke="white" stroke-width="2.33333" stroke-linecap="round" stroke-linejoin="round"/>
<path d="M5.83398 24.5H22.1673" stroke="white" stroke-width="2.33333" stroke-linecap="round" stroke-linejoin="round"/>
</svg>
