<svg width="28" height="28" viewBox="0 0 28 28" fill="none" xmlns="http://www.w3.org/2000/svg">
<path d="M2.33398 25.6663L18.6673 9.33301" stroke="white" stroke-width="2.33333" stroke-linecap="round" stroke-linejoin="round"/>
<path d="M4.04773 14.618L5.83273 12.833L7.61773 14.618C8.38003 15.3833 8.80803 16.4195 8.80803 17.4997C8.80803 18.5799 8.38003 19.616 7.61773 20.3813L5.83273 22.1663L4.04773 20.3813C3.28543 19.616 2.85742 18.5799 2.85742 17.4997C2.85742 16.4195 3.28543 15.3833 4.04773 14.618Z" stroke="white" stroke-width="2.33333" stroke-linecap="round" stroke-linejoin="round"/>
<path d="M8.7157 9.95199L10.5007 8.16699L12.2857 9.95199C13.048 10.7173 13.476 11.7535 13.476 12.8337C13.476 13.9138 13.048 14.95 12.2857 15.7153L10.5007 17.5003L8.7157 15.7153C7.95339 14.95 7.52539 13.9138 7.52539 12.8337C7.52539 11.7535 7.95339 10.7173 8.7157 9.95199Z" stroke="white" stroke-width="2.33333" stroke-linecap="round" stroke-linejoin="round"/>
<path d="M13.3817 5.285L15.1667 3.5L16.9517 5.285C17.714 6.05031 18.142 7.08648 18.142 8.16667C18.142 9.24685 17.714 10.283 16.9517 11.0483L15.1667 12.8333L13.3817 11.0483C12.6194 10.283 12.1914 9.24685 12.1914 8.16667C12.1914 7.08648 12.6194 6.05031 13.3817 5.285Z" stroke="white" stroke-width="2.33333" stroke-linecap="round" stroke-linejoin="round"/>
<path d="M23.3327 2.33301H25.666V4.66634C25.666 5.90402 25.1743 7.091 24.2992 7.96617C23.424 8.84134 22.237 9.33301 20.9993 9.33301H18.666V6.99967C18.666 5.762 19.1577 4.57501 20.0329 3.69984C20.908 2.82467 22.095 2.33301 23.3327 2.33301Z" stroke="white" stroke-width="2.33333" stroke-linecap="round" stroke-linejoin="round"/>
<path d="M13.3823 20.3817L15.1673 22.1667L13.3823 23.9517C12.617 24.714 11.5808 25.142 10.5007 25.142C9.42047 25.142 8.38429 24.714 7.61898 23.9517L5.83398 22.1667L7.61898 20.3817C8.38429 19.6194 9.42047 19.1914 10.5007 19.1914C11.5808 19.1914 12.617 19.6194 13.3823 20.3817Z" stroke="white" stroke-width="2.33333" stroke-linecap="round" stroke-linejoin="round"/>
<path d="M18.0483 15.7147L19.8333 17.4997L18.0483 19.2847C17.283 20.047 16.2469 20.475 15.1667 20.475C14.0865 20.475 13.0503 20.047 12.285 19.2847L10.5 17.4997L12.285 15.7147C13.0503 14.9524 14.0865 14.5244 15.1667 14.5244C16.2469 14.5244 17.283 14.9524 18.0483 15.7147Z" stroke="white" stroke-width="2.33333" stroke-linecap="round" stroke-linejoin="round"/>
<path d="M22.7143 11.0487L24.4993 12.8337L22.7143 14.6187C21.949 15.381 20.9129 15.809 19.8327 15.809C18.7525 15.809 17.7163 15.381 16.951 14.6187L15.166 12.8337L16.951 11.0487C17.7163 10.2864 18.7525 9.8584 19.8327 9.8584C20.9129 9.8584 21.949 10.2864 22.7143 11.0487Z" stroke="white" stroke-width="2.33333" stroke-linecap="round" stroke-linejoin="round"/>
</svg>
