<svg width="28" height="28" viewBox="0 0 28 28" fill="none" xmlns="http://www.w3.org/2000/svg">
<path d="M14.934 22.867C15.2298 23.0888 15.574 23.2372 15.9384 23.2999C16.3028 23.3626 16.6768 23.3378 17.0297 23.2275C17.3826 23.1173 17.7043 22.9248 17.9682 22.6658C18.2321 22.4069 18.4307 22.0889 18.5476 21.7382C18.6645 21.3874 18.6964 21.0139 18.6406 20.6484C18.5849 20.2829 18.4431 19.9359 18.2269 19.636C18.0107 19.3361 17.7263 19.0918 17.3972 18.9233C17.0681 18.7548 16.7037 18.667 16.334 18.667H2.33398" stroke="white" stroke-width="2.33333" stroke-linecap="round" stroke-linejoin="round"/>
<path d="M20.4173 9.33366C20.7156 8.93593 21.1106 8.62105 21.5649 8.41892C22.0191 8.21679 22.5174 8.13413 23.0126 8.17878C23.5077 8.22343 23.9833 8.3939 24.394 8.67403C24.8047 8.95415 25.1371 9.33461 25.3594 9.77929C25.5817 10.224 25.6867 10.7181 25.6644 11.2148C25.642 11.7114 25.4931 12.1941 25.2317 12.617C24.9703 13.04 24.6052 13.389 24.171 13.6311C23.7367 13.8732 23.2478 14.0003 22.7507 14.0003H2.33398" stroke="white" stroke-width="2.33333" stroke-linecap="round" stroke-linejoin="round"/>
<path d="M11.434 5.13366C11.7298 4.91183 12.074 4.76346 12.4384 4.70077C12.8028 4.63809 13.1768 4.66289 13.5297 4.77313C13.8826 4.88337 14.2043 5.07589 14.4682 5.33483C14.7321 5.59377 14.9307 5.91171 15.0476 6.26246C15.1645 6.61321 15.1964 6.98672 15.1406 7.35221C15.0849 7.7177 14.9431 8.06472 14.7269 8.36465C14.5107 8.66458 14.2263 8.90885 13.8972 9.07733C13.5681 9.2458 13.2037 9.33366 12.834 9.33366H2.33398" stroke="white" stroke-width="2.33333" stroke-linecap="round" stroke-linejoin="round"/>
</svg>
